<?xml version="1.0" encoding="utf-8" standalone="no"?>
<!DOCTYPE svg PUBLIC "-//W3C//DTD SVG 1.1//EN"
  "http://www.w3.org/Graphics/SVG/1.1/DTD/svg11.dtd">
<svg xmlns:xlink="http://www.w3.org/1999/xlink" width="846.20875pt" height="513.959292pt" viewBox="0 0 846.20875 513.959292" xmlns="http://www.w3.org/2000/svg" version="1.1">
 <metadata>
  <rdf:RDF xmlns:dc="http://purl.org/dc/elements/1.1/" xmlns:cc="http://creativecommons.org/ns#" xmlns:rdf="http://www.w3.org/1999/02/22-rdf-syntax-ns#">
   <cc:Work>
    <dc:type rdf:resource="http://purl.org/dc/dcmitype/StillImage"/>
    <dc:date>2026-04-04T18:19:55.669857</dc:date>
    <dc:format>image/svg+xml</dc:format>
    <dc:creator>
     <cc:Agent>
      <dc:title>Matplotlib v3.9.4, https://matplotlib.org/</dc:title>
     </cc:Agent>
    </dc:creator>
   </cc:Work>
  </rdf:RDF>
 </metadata>
 <defs>
  <style type="text/css">*{stroke-linejoin: round; stroke-linecap: butt}</style>
 </defs>
 <g id="figure_1">
  <g id="patch_1">
   <path d="M 0 513.959292 
L 846.20875 513.959292 
L 846.20875 0 
L 0 0 
z
" style="fill: #ffffff"/>
  </g>
  <g id="axes_1">
   <g id="patch_2">
    <path d="M 57.80875 454.202 
L 839.00875 454.202 
L 839.00875 49.274 
L 57.80875 49.274 
z
" style="fill: #fcfcfd"/>
   </g>
   <g id="patch_3">
    <path d="M 199.845114 454.202 
L 253.10875 454.202 
L 253.10875 49.274 
L 199.845114 49.274 
z
" clip-path="url(#p9e70ba3e0a)" style="fill: #fee2e2; opacity: 0.28; stroke: #fee2e2; stroke-linejoin: miter"/>
   </g>
   <g id="matplotlib.axis_1">
    <g id="xtick_1">
     <g id="line2d_1">
      <defs>
       <path id="m088c039077" d="M 0 0 
L 0 3.5 
" style="stroke: #000000; stroke-width: 0.8"/>
      </defs>
      <g>
       <use xlink:href="#m088c039077" x="93.317841" y="454.202" style="stroke: #000000; stroke-width: 0.8"/>
      </g>
     </g>
     <g id="text_1">
      <!-- 04:00 -->
      <g transform="translate(69.284497 489.527924) rotate(-45) scale(0.11 -0.11)">
       <defs>
        <path id="DejaVuSans-30" d="M 2034 4250 
Q 1547 4250 1301 3770 
Q 1056 3291 1056 2328 
Q 1056 1369 1301 889 
Q 1547 409 2034 409 
Q 2525 409 2770 889 
Q 3016 1369 3016 2328 
Q 3016 3291 2770 3770 
Q 2525 4250 2034 4250 
z
M 2034 4750 
Q 2819 4750 3233 4129 
Q 3647 3509 3647 2328 
Q 3647 1150 3233 529 
Q 2819 -91 2034 -91 
Q 1250 -91 836 529 
Q 422 1150 422 2328 
Q 422 3509 836 4129 
Q 1250 4750 2034 4750 
z
" transform="scale(0.015625)"/>
        <path id="DejaVuSans-34" d="M 2419 4116 
L 825 1625 
L 2419 1625 
L 2419 4116 
z
M 2253 4666 
L 3047 4666 
L 3047 1625 
L 3713 1625 
L 3713 1100 
L 3047 1100 
L 3047 0 
L 2419 0 
L 2419 1100 
L 313 1100 
L 313 1709 
L 2253 4666 
z
" transform="scale(0.015625)"/>
        <path id="DejaVuSans-3a" d="M 750 794 
L 1409 794 
L 1409 0 
L 750 0 
L 750 794 
z
M 750 3309 
L 1409 3309 
L 1409 2516 
L 750 2516 
L 750 3309 
z
" transform="scale(0.015625)"/>
       </defs>
       <use xlink:href="#DejaVuSans-30"/>
       <use xlink:href="#DejaVuSans-34" x="63.623047"/>
       <use xlink:href="#DejaVuSans-3a" x="127.246094"/>
       <use xlink:href="#DejaVuSans-30" x="160.9375"/>
       <use xlink:href="#DejaVuSans-30" x="224.560547"/>
      </g>
     </g>
    </g>
    <g id="xtick_2">
     <g id="line2d_2">
      <g>
       <use xlink:href="#m088c039077" x="128.826932" y="454.202" style="stroke: #000000; stroke-width: 0.8"/>
      </g>
     </g>
     <g id="text_2">
      <!-- 04:30 -->
      <g transform="translate(104.793588 489.527924) rotate(-45) scale(0.11 -0.11)">
       <defs>
        <path id="DejaVuSans-33" d="M 2597 2516 
Q 3050 2419 3304 2112 
Q 3559 1806 3559 1356 
Q 3559 666 3084 287 
Q 2609 -91 1734 -91 
Q 1441 -91 1130 -33 
Q 819 25 488 141 
L 488 750 
Q 750 597 1062 519 
Q 1375 441 1716 441 
Q 2309 441 2620 675 
Q 2931 909 2931 1356 
Q 2931 1769 2642 2001 
Q 2353 2234 1838 2234 
L 1294 2234 
L 1294 2753 
L 1863 2753 
Q 2328 2753 2575 2939 
Q 2822 3125 2822 3475 
Q 2822 3834 2567 4026 
Q 2313 4219 1838 4219 
Q 1578 4219 1281 4162 
Q 984 4106 628 3988 
L 628 4550 
Q 988 4650 1302 4700 
Q 1616 4750 1894 4750 
Q 2613 4750 3031 4423 
Q 3450 4097 3450 3541 
Q 3450 3153 3228 2886 
Q 3006 2619 2597 2516 
z
" transform="scale(0.015625)"/>
       </defs>
       <use xlink:href="#DejaVuSans-30"/>
       <use xlink:href="#DejaVuSans-34" x="63.623047"/>
       <use xlink:href="#DejaVuSans-3a" x="127.246094"/>
       <use xlink:href="#DejaVuSans-33" x="160.9375"/>
       <use xlink:href="#DejaVuSans-30" x="224.560547"/>
      </g>
     </g>
    </g>
    <g id="xtick_3">
     <g id="line2d_3">
      <g>
       <use xlink:href="#m088c039077" x="164.336023" y="454.202" style="stroke: #000000; stroke-width: 0.8"/>
      </g>
     </g>
     <g id="text_3">
      <!-- 05:00 -->
      <g transform="translate(140.302679 489.527924) rotate(-45) scale(0.11 -0.11)">
       <defs>
        <path id="DejaVuSans-35" d="M 691 4666 
L 3169 4666 
L 3169 4134 
L 1269 4134 
L 1269 2991 
Q 1406 3038 1543 3061 
Q 1681 3084 1819 3084 
Q 2600 3084 3056 2656 
Q 3513 2228 3513 1497 
Q 3513 744 3044 326 
Q 2575 -91 1722 -91 
Q 1428 -91 1123 -41 
Q 819 9 494 109 
L 494 744 
Q 775 591 1075 516 
Q 1375 441 1709 441 
Q 2250 441 2565 725 
Q 2881 1009 2881 1497 
Q 2881 1984 2565 2268 
Q 2250 2553 1709 2553 
Q 1456 2553 1204 2497 
Q 953 2441 691 2322 
L 691 4666 
z
" transform="scale(0.015625)"/>
       </defs>
       <use xlink:href="#DejaVuSans-30"/>
       <use xlink:href="#DejaVuSans-35" x="63.623047"/>
       <use xlink:href="#DejaVuSans-3a" x="127.246094"/>
       <use xlink:href="#DejaVuSans-30" x="160.9375"/>
       <use xlink:href="#DejaVuSans-30" x="224.560547"/>
      </g>
     </g>
    </g>
    <g id="xtick_4">
     <g id="line2d_4">
      <g>
       <use xlink:href="#m088c039077" x="199.845114" y="454.202" style="stroke: #000000; stroke-width: 0.8"/>
      </g>
     </g>
     <g id="text_4">
      <!-- 05:30 -->
      <g transform="translate(175.811769 489.527924) rotate(-45) scale(0.11 -0.11)">
       <use xlink:href="#DejaVuSans-30"/>
       <use xlink:href="#DejaVuSans-35" x="63.623047"/>
       <use xlink:href="#DejaVuSans-3a" x="127.246094"/>
       <use xlink:href="#DejaVuSans-33" x="160.9375"/>
       <use xlink:href="#DejaVuSans-30" x="224.560547"/>
      </g>
     </g>
    </g>
    <g id="xtick_5">
     <g id="line2d_5">
      <g>
       <use xlink:href="#m088c039077" x="235.354205" y="454.202" style="stroke: #000000; stroke-width: 0.8"/>
      </g>
     </g>
     <g id="text_5">
      <!-- 06:00 -->
      <g transform="translate(211.32086 489.527924) rotate(-45) scale(0.11 -0.11)">
       <defs>
        <path id="DejaVuSans-36" d="M 2113 2584 
Q 1688 2584 1439 2293 
Q 1191 2003 1191 1497 
Q 1191 994 1439 701 
Q 1688 409 2113 409 
Q 2538 409 2786 701 
Q 3034 994 3034 1497 
Q 3034 2003 2786 2293 
Q 2538 2584 2113 2584 
z
M 3366 4563 
L 3366 3988 
Q 3128 4100 2886 4159 
Q 2644 4219 2406 4219 
Q 1781 4219 1451 3797 
Q 1122 3375 1075 2522 
Q 1259 2794 1537 2939 
Q 1816 3084 2150 3084 
Q 2853 3084 3261 2657 
Q 3669 2231 3669 1497 
Q 3669 778 3244 343 
Q 2819 -91 2113 -91 
Q 1303 -91 875 529 
Q 447 1150 447 2328 
Q 447 3434 972 4092 
Q 1497 4750 2381 4750 
Q 2619 4750 2861 4703 
Q 3103 4656 3366 4563 
z
" transform="scale(0.015625)"/>
       </defs>
       <use xlink:href="#DejaVuSans-30"/>
       <use xlink:href="#DejaVuSans-36" x="63.623047"/>
       <use xlink:href="#DejaVuSans-3a" x="127.246094"/>
       <use xlink:href="#DejaVuSans-30" x="160.9375"/>
       <use xlink:href="#DejaVuSans-30" x="224.560547"/>
      </g>
     </g>
    </g>
    <g id="xtick_6">
     <g id="line2d_6">
      <g>
       <use xlink:href="#m088c039077" x="270.863295" y="454.202" style="stroke: #000000; stroke-width: 0.8"/>
      </g>
     </g>
     <g id="text_6">
      <!-- 06:30 -->
      <g transform="translate(246.829951 489.527924) rotate(-45) scale(0.11 -0.11)">
       <use xlink:href="#DejaVuSans-30"/>
       <use xlink:href="#DejaVuSans-36" x="63.623047"/>
       <use xlink:href="#DejaVuSans-3a" x="127.246094"/>
       <use xlink:href="#DejaVuSans-33" x="160.9375"/>
       <use xlink:href="#DejaVuSans-30" x="224.560547"/>
      </g>
     </g>
    </g>
    <g id="xtick_7">
     <g id="line2d_7">
      <g>
       <use xlink:href="#m088c039077" x="306.372386" y="454.202" style="stroke: #000000; stroke-width: 0.8"/>
      </g>
     </g>
     <g id="text_7">
      <!-- 07:00 -->
      <g transform="translate(282.339042 489.527924) rotate(-45) scale(0.11 -0.11)">
       <defs>
        <path id="DejaVuSans-37" d="M 525 4666 
L 3525 4666 
L 3525 4397 
L 1831 0 
L 1172 0 
L 2766 4134 
L 525 4134 
L 525 4666 
z
" transform="scale(0.015625)"/>
       </defs>
       <use xlink:href="#DejaVuSans-30"/>
       <use xlink:href="#DejaVuSans-37" x="63.623047"/>
       <use xlink:href="#DejaVuSans-3a" x="127.246094"/>
       <use xlink:href="#DejaVuSans-30" x="160.9375"/>
       <use xlink:href="#DejaVuSans-30" x="224.560547"/>
      </g>
     </g>
    </g>
    <g id="xtick_8">
     <g id="line2d_8">
      <g>
       <use xlink:href="#m088c039077" x="341.881477" y="454.202" style="stroke: #000000; stroke-width: 0.8"/>
      </g>
     </g>
     <g id="text_8">
      <!-- 07:30 -->
      <g transform="translate(317.848133 489.527924) rotate(-45) scale(0.11 -0.11)">
       <use xlink:href="#DejaVuSans-30"/>
       <use xlink:href="#DejaVuSans-37" x="63.623047"/>
       <use xlink:href="#DejaVuSans-3a" x="127.246094"/>
       <use xlink:href="#DejaVuSans-33" x="160.9375"/>
       <use xlink:href="#DejaVuSans-30" x="224.560547"/>
      </g>
     </g>
    </g>
    <g id="xtick_9">
     <g id="line2d_9">
      <g>
       <use xlink:href="#m088c039077" x="377.390568" y="454.202" style="stroke: #000000; stroke-width: 0.8"/>
      </g>
     </g>
     <g id="text_9">
      <!-- 08:00 -->
      <g transform="translate(353.357224 489.527924) rotate(-45) scale(0.11 -0.11)">
       <defs>
        <path id="DejaVuSans-38" d="M 2034 2216 
Q 1584 2216 1326 1975 
Q 1069 1734 1069 1313 
Q 1069 891 1326 650 
Q 1584 409 2034 409 
Q 2484 409 2743 651 
Q 3003 894 3003 1313 
Q 3003 1734 2745 1975 
Q 2488 2216 2034 2216 
z
M 1403 2484 
Q 997 2584 770 2862 
Q 544 3141 544 3541 
Q 544 4100 942 4425 
Q 1341 4750 2034 4750 
Q 2731 4750 3128 4425 
Q 3525 4100 3525 3541 
Q 3525 3141 3298 2862 
Q 3072 2584 2669 2484 
Q 3125 2378 3379 2068 
Q 3634 1759 3634 1313 
Q 3634 634 3220 271 
Q 2806 -91 2034 -91 
Q 1263 -91 848 271 
Q 434 634 434 1313 
Q 434 1759 690 2068 
Q 947 2378 1403 2484 
z
M 1172 3481 
Q 1172 3119 1398 2916 
Q 1625 2713 2034 2713 
Q 2441 2713 2670 2916 
Q 2900 3119 2900 3481 
Q 2900 3844 2670 4047 
Q 2441 4250 2034 4250 
Q 1625 4250 1398 4047 
Q 1172 3844 1172 3481 
z
" transform="scale(0.015625)"/>
       </defs>
       <use xlink:href="#DejaVuSans-30"/>
       <use xlink:href="#DejaVuSans-38" x="63.623047"/>
       <use xlink:href="#DejaVuSans-3a" x="127.246094"/>
       <use xlink:href="#DejaVuSans-30" x="160.9375"/>
       <use xlink:href="#DejaVuSans-30" x="224.560547"/>
      </g>
     </g>
    </g>
    <g id="xtick_10">
     <g id="line2d_10">
      <g>
       <use xlink:href="#m088c039077" x="412.899659" y="454.202" style="stroke: #000000; stroke-width: 0.8"/>
      </g>
     </g>
     <g id="text_10">
      <!-- 08:30 -->
      <g transform="translate(388.866315 489.527924) rotate(-45) scale(0.11 -0.11)">
       <use xlink:href="#DejaVuSans-30"/>
       <use xlink:href="#DejaVuSans-38" x="63.623047"/>
       <use xlink:href="#DejaVuSans-3a" x="127.246094"/>
       <use xlink:href="#DejaVuSans-33" x="160.9375"/>
       <use xlink:href="#DejaVuSans-30" x="224.560547"/>
      </g>
     </g>
    </g>
    <g id="xtick_11">
     <g id="line2d_11">
      <g>
       <use xlink:href="#m088c039077" x="448.40875" y="454.202" style="stroke: #000000; stroke-width: 0.8"/>
      </g>
     </g>
     <g id="text_11">
      <!-- 09:00 -->
      <g transform="translate(424.375406 489.527924) rotate(-45) scale(0.11 -0.11)">
       <defs>
        <path id="DejaVuSans-39" d="M 703 97 
L 703 672 
Q 941 559 1184 500 
Q 1428 441 1663 441 
Q 2288 441 2617 861 
Q 2947 1281 2994 2138 
Q 2813 1869 2534 1725 
Q 2256 1581 1919 1581 
Q 1219 1581 811 2004 
Q 403 2428 403 3163 
Q 403 3881 828 4315 
Q 1253 4750 1959 4750 
Q 2769 4750 3195 4129 
Q 3622 3509 3622 2328 
Q 3622 1225 3098 567 
Q 2575 -91 1691 -91 
Q 1453 -91 1209 -44 
Q 966 3 703 97 
z
M 1959 2075 
Q 2384 2075 2632 2365 
Q 2881 2656 2881 3163 
Q 2881 3666 2632 3958 
Q 2384 4250 1959 4250 
Q 1534 4250 1286 3958 
Q 1038 3666 1038 3163 
Q 1038 2656 1286 2365 
Q 1534 2075 1959 2075 
z
" transform="scale(0.015625)"/>
       </defs>
       <use xlink:href="#DejaVuSans-30"/>
       <use xlink:href="#DejaVuSans-39" x="63.623047"/>
       <use xlink:href="#DejaVuSans-3a" x="127.246094"/>
       <use xlink:href="#DejaVuSans-30" x="160.9375"/>
       <use xlink:href="#DejaVuSans-30" x="224.560547"/>
      </g>
     </g>
    </g>
    <g id="xtick_12">
     <g id="line2d_12">
      <g>
       <use xlink:href="#m088c039077" x="483.917841" y="454.202" style="stroke: #000000; stroke-width: 0.8"/>
      </g>
     </g>
     <g id="text_12">
      <!-- 09:30 -->
      <g transform="translate(459.884497 489.527924) rotate(-45) scale(0.11 -0.11)">
       <use xlink:href="#DejaVuSans-30"/>
       <use xlink:href="#DejaVuSans-39" x="63.623047"/>
       <use xlink:href="#DejaVuSans-3a" x="127.246094"/>
       <use xlink:href="#DejaVuSans-33" x="160.9375"/>
       <use xlink:href="#DejaVuSans-30" x="224.560547"/>
      </g>
     </g>
    </g>
    <g id="xtick_13">
     <g id="line2d_13">
      <g>
       <use xlink:href="#m088c039077" x="519.426932" y="454.202" style="stroke: #000000; stroke-width: 0.8"/>
      </g>
     </g>
     <g id="text_13">
      <!-- 10:00 -->
      <g transform="translate(495.393588 489.527924) rotate(-45) scale(0.11 -0.11)">
       <defs>
        <path id="DejaVuSans-31" d="M 794 531 
L 1825 531 
L 1825 4091 
L 703 3866 
L 703 4441 
L 1819 4666 
L 2450 4666 
L 2450 531 
L 3481 531 
L 3481 0 
L 794 0 
L 794 531 
z
" transform="scale(0.015625)"/>
       </defs>
       <use xlink:href="#DejaVuSans-31"/>
       <use xlink:href="#DejaVuSans-30" x="63.623047"/>
       <use xlink:href="#DejaVuSans-3a" x="127.246094"/>
       <use xlink:href="#DejaVuSans-30" x="160.9375"/>
       <use xlink:href="#DejaVuSans-30" x="224.560547"/>
      </g>
     </g>
    </g>
    <g id="xtick_14">
     <g id="line2d_14">
      <g>
       <use xlink:href="#m088c039077" x="554.936023" y="454.202" style="stroke: #000000; stroke-width: 0.8"/>
      </g>
     </g>
     <g id="text_14">
      <!-- 10:30 -->
      <g transform="translate(530.902679 489.527924) rotate(-45) scale(0.11 -0.11)">
       <use xlink:href="#DejaVuSans-31"/>
       <use xlink:href="#DejaVuSans-30" x="63.623047"/>
       <use xlink:href="#DejaVuSans-3a" x="127.246094"/>
       <use xlink:href="#DejaVuSans-33" x="160.9375"/>
       <use xlink:href="#DejaVuSans-30" x="224.560547"/>
      </g>
     </g>
    </g>
    <g id="xtick_15">
     <g id="line2d_15">
      <g>
       <use xlink:href="#m088c039077" x="590.445114" y="454.202" style="stroke: #000000; stroke-width: 0.8"/>
      </g>
     </g>
     <g id="text_15">
      <!-- 11:00 -->
      <g transform="translate(566.411769 489.527924) rotate(-45) scale(0.11 -0.11)">
       <use xlink:href="#DejaVuSans-31"/>
       <use xlink:href="#DejaVuSans-31" x="63.623047"/>
       <use xlink:href="#DejaVuSans-3a" x="127.246094"/>
       <use xlink:href="#DejaVuSans-30" x="160.9375"/>
       <use xlink:href="#DejaVuSans-30" x="224.560547"/>
      </g>
     </g>
    </g>
    <g id="xtick_16">
     <g id="line2d_16">
      <g>
       <use xlink:href="#m088c039077" x="625.954205" y="454.202" style="stroke: #000000; stroke-width: 0.8"/>
      </g>
     </g>
     <g id="text_16">
      <!-- 11:30 -->
      <g transform="translate(601.92086 489.527924) rotate(-45) scale(0.11 -0.11)">
       <use xlink:href="#DejaVuSans-31"/>
       <use xlink:href="#DejaVuSans-31" x="63.623047"/>
       <use xlink:href="#DejaVuSans-3a" x="127.246094"/>
       <use xlink:href="#DejaVuSans-33" x="160.9375"/>
       <use xlink:href="#DejaVuSans-30" x="224.560547"/>
      </g>
     </g>
    </g>
    <g id="xtick_17">
     <g id="line2d_17">
      <g>
       <use xlink:href="#m088c039077" x="661.463295" y="454.202" style="stroke: #000000; stroke-width: 0.8"/>
      </g>
     </g>
     <g id="text_17">
      <!-- 12:00 -->
      <g transform="translate(637.429951 489.527924) rotate(-45) scale(0.11 -0.11)">
       <defs>
        <path id="DejaVuSans-32" d="M 1228 531 
L 3431 531 
L 3431 0 
L 469 0 
L 469 531 
Q 828 903 1448 1529 
Q 2069 2156 2228 2338 
Q 2531 2678 2651 2914 
Q 2772 3150 2772 3378 
Q 2772 3750 2511 3984 
Q 2250 4219 1831 4219 
Q 1534 4219 1204 4116 
Q 875 4013 500 3803 
L 500 4441 
Q 881 4594 1212 4672 
Q 1544 4750 1819 4750 
Q 2544 4750 2975 4387 
Q 3406 4025 3406 3419 
Q 3406 3131 3298 2873 
Q 3191 2616 2906 2266 
Q 2828 2175 2409 1742 
Q 1991 1309 1228 531 
z
" transform="scale(0.015625)"/>
       </defs>
       <use xlink:href="#DejaVuSans-31"/>
       <use xlink:href="#DejaVuSans-32" x="63.623047"/>
       <use xlink:href="#DejaVuSans-3a" x="127.246094"/>
       <use xlink:href="#DejaVuSans-30" x="160.9375"/>
       <use xlink:href="#DejaVuSans-30" x="224.560547"/>
      </g>
     </g>
    </g>
    <g id="xtick_18">
     <g id="line2d_18">
      <g>
       <use xlink:href="#m088c039077" x="696.972386" y="454.202" style="stroke: #000000; stroke-width: 0.8"/>
      </g>
     </g>
     <g id="text_18">
      <!-- 12:30 -->
      <g transform="translate(672.939042 489.527924) rotate(-45) scale(0.11 -0.11)">
       <use xlink:href="#DejaVuSans-31"/>
       <use xlink:href="#DejaVuSans-32" x="63.623047"/>
       <use xlink:href="#DejaVuSans-3a" x="127.246094"/>
       <use xlink:href="#DejaVuSans-33" x="160.9375"/>
       <use xlink:href="#DejaVuSans-30" x="224.560547"/>
      </g>
     </g>
    </g>
    <g id="xtick_19">
     <g id="line2d_19">
      <g>
       <use xlink:href="#m088c039077" x="732.481477" y="454.202" style="stroke: #000000; stroke-width: 0.8"/>
      </g>
     </g>
     <g id="text_19">
      <!-- 13:00 -->
      <g transform="translate(708.448133 489.527924) rotate(-45) scale(0.11 -0.11)">
       <use xlink:href="#DejaVuSans-31"/>
       <use xlink:href="#DejaVuSans-33" x="63.623047"/>
       <use xlink:href="#DejaVuSans-3a" x="127.246094"/>
       <use xlink:href="#DejaVuSans-30" x="160.9375"/>
       <use xlink:href="#DejaVuSans-30" x="224.560547"/>
      </g>
     </g>
    </g>
    <g id="xtick_20">
     <g id="line2d_20">
      <g>
       <use xlink:href="#m088c039077" x="767.990568" y="454.202" style="stroke: #000000; stroke-width: 0.8"/>
      </g>
     </g>
     <g id="text_20">
      <!-- 13:30 -->
      <g transform="translate(743.957224 489.527924) rotate(-45) scale(0.11 -0.11)">
       <use xlink:href="#DejaVuSans-31"/>
       <use xlink:href="#DejaVuSans-33" x="63.623047"/>
       <use xlink:href="#DejaVuSans-3a" x="127.246094"/>
       <use xlink:href="#DejaVuSans-33" x="160.9375"/>
       <use xlink:href="#DejaVuSans-30" x="224.560547"/>
      </g>
     </g>
    </g>
    <g id="xtick_21">
     <g id="line2d_21">
      <g>
       <use xlink:href="#m088c039077" x="803.499659" y="454.202" style="stroke: #000000; stroke-width: 0.8"/>
      </g>
     </g>
     <g id="text_21">
      <!-- 14:00 -->
      <g transform="translate(779.466315 489.527924) rotate(-45) scale(0.11 -0.11)">
       <use xlink:href="#DejaVuSans-31"/>
       <use xlink:href="#DejaVuSans-34" x="63.623047"/>
       <use xlink:href="#DejaVuSans-3a" x="127.246094"/>
       <use xlink:href="#DejaVuSans-30" x="160.9375"/>
       <use xlink:href="#DejaVuSans-30" x="224.560547"/>
      </g>
     </g>
    </g>
    <g id="text_22">
     <!-- 15-minute bucket -->
     <g transform="translate(395.330313 504.263667) scale(0.12 -0.12)">
      <defs>
       <path id="DejaVuSans-2d" d="M 313 2009 
L 1997 2009 
L 1997 1497 
L 313 1497 
L 313 2009 
z
" transform="scale(0.015625)"/>
       <path id="DejaVuSans-6d" d="M 3328 2828 
Q 3544 3216 3844 3400 
Q 4144 3584 4550 3584 
Q 5097 3584 5394 3201 
Q 5691 2819 5691 2113 
L 5691 0 
L 5113 0 
L 5113 2094 
Q 5113 2597 4934 2840 
Q 4756 3084 4391 3084 
Q 3944 3084 3684 2787 
Q 3425 2491 3425 1978 
L 3425 0 
L 2847 0 
L 2847 2094 
Q 2847 2600 2669 2842 
Q 2491 3084 2119 3084 
Q 1678 3084 1418 2786 
Q 1159 2488 1159 1978 
L 1159 0 
L 581 0 
L 581 3500 
L 1159 3500 
L 1159 2956 
Q 1356 3278 1631 3431 
Q 1906 3584 2284 3584 
Q 2666 3584 2933 3390 
Q 3200 3197 3328 2828 
z
" transform="scale(0.015625)"/>
       <path id="DejaVuSans-69" d="M 603 3500 
L 1178 3500 
L 1178 0 
L 603 0 
L 603 3500 
z
M 603 4863 
L 1178 4863 
L 1178 4134 
L 603 4134 
L 603 4863 
z
" transform="scale(0.015625)"/>
       <path id="DejaVuSans-6e" d="M 3513 2113 
L 3513 0 
L 2938 0 
L 2938 2094 
Q 2938 2591 2744 2837 
Q 2550 3084 2163 3084 
Q 1697 3084 1428 2787 
Q 1159 2491 1159 1978 
L 1159 0 
L 581 0 
L 581 3500 
L 1159 3500 
L 1159 2956 
Q 1366 3272 1645 3428 
Q 1925 3584 2291 3584 
Q 2894 3584 3203 3211 
Q 3513 2838 3513 2113 
z
" transform="scale(0.015625)"/>
       <path id="DejaVuSans-75" d="M 544 1381 
L 544 3500 
L 1119 3500 
L 1119 1403 
Q 1119 906 1312 657 
Q 1506 409 1894 409 
Q 2359 409 2629 706 
Q 2900 1003 2900 1516 
L 2900 3500 
L 3475 3500 
L 3475 0 
L 2900 0 
L 2900 538 
Q 2691 219 2414 64 
Q 2138 -91 1772 -91 
Q 1169 -91 856 284 
Q 544 659 544 1381 
z
M 1991 3584 
L 1991 3584 
z
" transform="scale(0.015625)"/>
       <path id="DejaVuSans-74" d="M 1172 4494 
L 1172 3500 
L 2356 3500 
L 2356 3053 
L 1172 3053 
L 1172 1153 
Q 1172 725 1289 603 
Q 1406 481 1766 481 
L 2356 481 
L 2356 0 
L 1766 0 
Q 1100 0 847 248 
Q 594 497 594 1153 
L 594 3053 
L 172 3053 
L 172 3500 
L 594 3500 
L 594 4494 
L 1172 4494 
z
" transform="scale(0.015625)"/>
       <path id="DejaVuSans-65" d="M 3597 1894 
L 3597 1613 
L 953 1613 
Q 991 1019 1311 708 
Q 1631 397 2203 397 
Q 2534 397 2845 478 
Q 3156 559 3463 722 
L 3463 178 
Q 3153 47 2828 -22 
Q 2503 -91 2169 -91 
Q 1331 -91 842 396 
Q 353 884 353 1716 
Q 353 2575 817 3079 
Q 1281 3584 2069 3584 
Q 2775 3584 3186 3129 
Q 3597 2675 3597 1894 
z
M 3022 2063 
Q 3016 2534 2758 2815 
Q 2500 3097 2075 3097 
Q 1594 3097 1305 2825 
Q 1016 2553 972 2059 
L 3022 2063 
z
" transform="scale(0.015625)"/>
       <path id="DejaVuSans-20" transform="scale(0.015625)"/>
       <path id="DejaVuSans-62" d="M 3116 1747 
Q 3116 2381 2855 2742 
Q 2594 3103 2138 3103 
Q 1681 3103 1420 2742 
Q 1159 2381 1159 1747 
Q 1159 1113 1420 752 
Q 1681 391 2138 391 
Q 2594 391 2855 752 
Q 3116 1113 3116 1747 
z
M 1159 2969 
Q 1341 3281 1617 3432 
Q 1894 3584 2278 3584 
Q 2916 3584 3314 3078 
Q 3713 2572 3713 1747 
Q 3713 922 3314 415 
Q 2916 -91 2278 -91 
Q 1894 -91 1617 61 
Q 1341 213 1159 525 
L 1159 0 
L 581 0 
L 581 4863 
L 1159 4863 
L 1159 2969 
z
" transform="scale(0.015625)"/>
       <path id="DejaVuSans-63" d="M 3122 3366 
L 3122 2828 
Q 2878 2963 2633 3030 
Q 2388 3097 2138 3097 
Q 1578 3097 1268 2742 
Q 959 2388 959 1747 
Q 959 1106 1268 751 
Q 1578 397 2138 397 
Q 2388 397 2633 464 
Q 2878 531 3122 666 
L 3122 134 
Q 2881 22 2623 -34 
Q 2366 -91 2075 -91 
Q 1284 -91 818 406 
Q 353 903 353 1747 
Q 353 2603 823 3093 
Q 1294 3584 2113 3584 
Q 2378 3584 2631 3529 
Q 2884 3475 3122 3366 
z
" transform="scale(0.015625)"/>
       <path id="DejaVuSans-6b" d="M 581 4863 
L 1159 4863 
L 1159 1991 
L 2875 3500 
L 3609 3500 
L 1753 1863 
L 3688 0 
L 2938 0 
L 1159 1709 
L 1159 0 
L 581 0 
L 581 4863 
z
" transform="scale(0.015625)"/>
      </defs>
      <use xlink:href="#DejaVuSans-31"/>
      <use xlink:href="#DejaVuSans-35" x="63.623047"/>
      <use xlink:href="#DejaVuSans-2d" x="127.246094"/>
      <use xlink:href="#DejaVuSans-6d" x="163.330078"/>
      <use xlink:href="#DejaVuSans-69" x="260.742188"/>
      <use xlink:href="#DejaVuSans-6e" x="288.525391"/>
      <use xlink:href="#DejaVuSans-75" x="351.904297"/>
      <use xlink:href="#DejaVuSans-74" x="415.283203"/>
      <use xlink:href="#DejaVuSans-65" x="454.492188"/>
      <use xlink:href="#DejaVuSans-20" x="516.015625"/>
      <use xlink:href="#DejaVuSans-62" x="547.802734"/>
      <use xlink:href="#DejaVuSans-75" x="611.279297"/>
      <use xlink:href="#DejaVuSans-63" x="674.658203"/>
      <use xlink:href="#DejaVuSans-6b" x="729.638672"/>
      <use xlink:href="#DejaVuSans-65" x="783.923828"/>
      <use xlink:href="#DejaVuSans-74" x="845.447266"/>
     </g>
    </g>
   </g>
   <g id="matplotlib.axis_2">
    <g id="ytick_1">
     <g id="line2d_22">
      <path d="M 57.80875 435.796182 
L 839.00875 435.796182 
" clip-path="url(#p9e70ba3e0a)" style="fill: none; stroke: #d9dee7; stroke-opacity: 0.4; stroke-width: 0.8; stroke-linecap: square"/>
     </g>
     <g id="line2d_23">
      <defs>
       <path id="m187323470f" d="M 0 0 
L -3.5 0 
" style="stroke: #000000; stroke-width: 0.8"/>
      </defs>
      <g>
       <use xlink:href="#m187323470f" x="57.80875" y="435.796182" style="stroke: #000000; stroke-width: 0.8"/>
      </g>
     </g>
     <g id="text_23">
      <!-- 0 -->
      <g transform="translate(43.81 439.975322) scale(0.11 -0.11)">
       <use xlink:href="#DejaVuSans-30"/>
      </g>
     </g>
    </g>
    <g id="ytick_2">
     <g id="line2d_24">
      <path d="M 57.80875 389.559701 
L 839.00875 389.559701 
" clip-path="url(#p9e70ba3e0a)" style="fill: none; stroke: #d9dee7; stroke-opacity: 0.4; stroke-width: 0.8; stroke-linecap: square"/>
     </g>
     <g id="line2d_25">
      <g>
       <use xlink:href="#m187323470f" x="57.80875" y="389.559701" style="stroke: #000000; stroke-width: 0.8"/>
      </g>
     </g>
     <g id="text_24">
      <!-- 250 -->
      <g transform="translate(29.8125 393.738842) scale(0.11 -0.11)">
       <use xlink:href="#DejaVuSans-32"/>
       <use xlink:href="#DejaVuSans-35" x="63.623047"/>
       <use xlink:href="#DejaVuSans-30" x="127.246094"/>
      </g>
     </g>
    </g>
    <g id="ytick_3">
     <g id="line2d_26">
      <path d="M 57.80875 343.323221 
L 839.00875 343.323221 
" clip-path="url(#p9e70ba3e0a)" style="fill: none; stroke: #d9dee7; stroke-opacity: 0.4; stroke-width: 0.8; stroke-linecap: square"/>
     </g>
     <g id="line2d_27">
      <g>
       <use xlink:href="#m187323470f" x="57.80875" y="343.323221" style="stroke: #000000; stroke-width: 0.8"/>
      </g>
     </g>
     <g id="text_25">
      <!-- 500 -->
      <g transform="translate(29.8125 347.502361) scale(0.11 -0.11)">
       <use xlink:href="#DejaVuSans-35"/>
       <use xlink:href="#DejaVuSans-30" x="63.623047"/>
       <use xlink:href="#DejaVuSans-30" x="127.246094"/>
      </g>
     </g>
    </g>
    <g id="ytick_4">
     <g id="line2d_28">
      <path d="M 57.80875 297.08674 
L 839.00875 297.08674 
" clip-path="url(#p9e70ba3e0a)" style="fill: none; stroke: #d9dee7; stroke-opacity: 0.4; stroke-width: 0.8; stroke-linecap: square"/>
     </g>
     <g id="line2d_29">
      <g>
       <use xlink:href="#m187323470f" x="57.80875" y="297.08674" style="stroke: #000000; stroke-width: 0.8"/>
      </g>
     </g>
     <g id="text_26">
      <!-- 750 -->
      <g transform="translate(29.8125 301.265881) scale(0.11 -0.11)">
       <use xlink:href="#DejaVuSans-37"/>
       <use xlink:href="#DejaVuSans-35" x="63.623047"/>
       <use xlink:href="#DejaVuSans-30" x="127.246094"/>
      </g>
     </g>
    </g>
    <g id="ytick_5">
     <g id="line2d_30">
      <path d="M 57.80875 250.85026 
L 839.00875 250.85026 
" clip-path="url(#p9e70ba3e0a)" style="fill: none; stroke: #d9dee7; stroke-opacity: 0.4; stroke-width: 0.8; stroke-linecap: square"/>
     </g>
     <g id="line2d_31">
      <g>
       <use xlink:href="#m187323470f" x="57.80875" y="250.85026" style="stroke: #000000; stroke-width: 0.8"/>
      </g>
     </g>
     <g id="text_27">
      <!-- 1000 -->
      <g transform="translate(22.81375 255.0294) scale(0.11 -0.11)">
       <use xlink:href="#DejaVuSans-31"/>
       <use xlink:href="#DejaVuSans-30" x="63.623047"/>
       <use xlink:href="#DejaVuSans-30" x="127.246094"/>
       <use xlink:href="#DejaVuSans-30" x="190.869141"/>
      </g>
     </g>
    </g>
    <g id="ytick_6">
     <g id="line2d_32">
      <path d="M 57.80875 204.613779 
L 839.00875 204.613779 
" clip-path="url(#p9e70ba3e0a)" style="fill: none; stroke: #d9dee7; stroke-opacity: 0.4; stroke-width: 0.8; stroke-linecap: square"/>
     </g>
     <g id="line2d_33">
      <g>
       <use xlink:href="#m187323470f" x="57.80875" y="204.613779" style="stroke: #000000; stroke-width: 0.8"/>
      </g>
     </g>
     <g id="text_28">
      <!-- 1250 -->
      <g transform="translate(22.81375 208.79292) scale(0.11 -0.11)">
       <use xlink:href="#DejaVuSans-31"/>
       <use xlink:href="#DejaVuSans-32" x="63.623047"/>
       <use xlink:href="#DejaVuSans-35" x="127.246094"/>
       <use xlink:href="#DejaVuSans-30" x="190.869141"/>
      </g>
     </g>
    </g>
    <g id="ytick_7">
     <g id="line2d_34">
      <path d="M 57.80875 158.377298 
L 839.00875 158.377298 
" clip-path="url(#p9e70ba3e0a)" style="fill: none; stroke: #d9dee7; stroke-opacity: 0.4; stroke-width: 0.8; stroke-linecap: square"/>
     </g>
     <g id="line2d_35">
      <g>
       <use xlink:href="#m187323470f" x="57.80875" y="158.377298" style="stroke: #000000; stroke-width: 0.8"/>
      </g>
     </g>
     <g id="text_29">
      <!-- 1500 -->
      <g transform="translate(22.81375 162.556439) scale(0.11 -0.11)">
       <use xlink:href="#DejaVuSans-31"/>
       <use xlink:href="#DejaVuSans-35" x="63.623047"/>
       <use xlink:href="#DejaVuSans-30" x="127.246094"/>
       <use xlink:href="#DejaVuSans-30" x="190.869141"/>
      </g>
     </g>
    </g>
    <g id="ytick_8">
     <g id="line2d_36">
      <path d="M 57.80875 112.140818 
L 839.00875 112.140818 
" clip-path="url(#p9e70ba3e0a)" style="fill: none; stroke: #d9dee7; stroke-opacity: 0.4; stroke-width: 0.8; stroke-linecap: square"/>
     </g>
     <g id="line2d_37">
      <g>
       <use xlink:href="#m187323470f" x="57.80875" y="112.140818" style="stroke: #000000; stroke-width: 0.8"/>
      </g>
     </g>
     <g id="text_30">
      <!-- 1750 -->
      <g transform="translate(22.81375 116.319959) scale(0.11 -0.11)">
       <use xlink:href="#DejaVuSans-31"/>
       <use xlink:href="#DejaVuSans-37" x="63.623047"/>
       <use xlink:href="#DejaVuSans-35" x="127.246094"/>
       <use xlink:href="#DejaVuSans-30" x="190.869141"/>
      </g>
     </g>
    </g>
    <g id="ytick_9">
     <g id="line2d_38">
      <path d="M 57.80875 65.904337 
L 839.00875 65.904337 
" clip-path="url(#p9e70ba3e0a)" style="fill: none; stroke: #d9dee7; stroke-opacity: 0.4; stroke-width: 0.8; stroke-linecap: square"/>
     </g>
     <g id="line2d_39">
      <g>
       <use xlink:href="#m187323470f" x="57.80875" y="65.904337" style="stroke: #000000; stroke-width: 0.8"/>
      </g>
     </g>
     <g id="text_31">
      <!-- 2000 -->
      <g transform="translate(22.81375 70.083478) scale(0.11 -0.11)">
       <use xlink:href="#DejaVuSans-32"/>
       <use xlink:href="#DejaVuSans-30" x="63.623047"/>
       <use xlink:href="#DejaVuSans-30" x="127.246094"/>
       <use xlink:href="#DejaVuSans-30" x="190.869141"/>
      </g>
     </g>
    </g>
    <g id="text_32">
     <!-- Aggregated picking overload -->
     <g transform="translate(16.318125 338.369563) rotate(-90) scale(0.12 -0.12)">
      <defs>
       <path id="DejaVuSans-41" d="M 2188 4044 
L 1331 1722 
L 3047 1722 
L 2188 4044 
z
M 1831 4666 
L 2547 4666 
L 4325 0 
L 3669 0 
L 3244 1197 
L 1141 1197 
L 716 0 
L 50 0 
L 1831 4666 
z
" transform="scale(0.015625)"/>
       <path id="DejaVuSans-67" d="M 2906 1791 
Q 2906 2416 2648 2759 
Q 2391 3103 1925 3103 
Q 1463 3103 1205 2759 
Q 947 2416 947 1791 
Q 947 1169 1205 825 
Q 1463 481 1925 481 
Q 2391 481 2648 825 
Q 2906 1169 2906 1791 
z
M 3481 434 
Q 3481 -459 3084 -895 
Q 2688 -1331 1869 -1331 
Q 1566 -1331 1297 -1286 
Q 1028 -1241 775 -1147 
L 775 -588 
Q 1028 -725 1275 -790 
Q 1522 -856 1778 -856 
Q 2344 -856 2625 -561 
Q 2906 -266 2906 331 
L 2906 616 
Q 2728 306 2450 153 
Q 2172 0 1784 0 
Q 1141 0 747 490 
Q 353 981 353 1791 
Q 353 2603 747 3093 
Q 1141 3584 1784 3584 
Q 2172 3584 2450 3431 
Q 2728 3278 2906 2969 
L 2906 3500 
L 3481 3500 
L 3481 434 
z
" transform="scale(0.015625)"/>
       <path id="DejaVuSans-72" d="M 2631 2963 
Q 2534 3019 2420 3045 
Q 2306 3072 2169 3072 
Q 1681 3072 1420 2755 
Q 1159 2438 1159 1844 
L 1159 0 
L 581 0 
L 581 3500 
L 1159 3500 
L 1159 2956 
Q 1341 3275 1631 3429 
Q 1922 3584 2338 3584 
Q 2397 3584 2469 3576 
Q 2541 3569 2628 3553 
L 2631 2963 
z
" transform="scale(0.015625)"/>
       <path id="DejaVuSans-61" d="M 2194 1759 
Q 1497 1759 1228 1600 
Q 959 1441 959 1056 
Q 959 750 1161 570 
Q 1363 391 1709 391 
Q 2188 391 2477 730 
Q 2766 1069 2766 1631 
L 2766 1759 
L 2194 1759 
z
M 3341 1997 
L 3341 0 
L 2766 0 
L 2766 531 
Q 2569 213 2275 61 
Q 1981 -91 1556 -91 
Q 1019 -91 701 211 
Q 384 513 384 1019 
Q 384 1609 779 1909 
Q 1175 2209 1959 2209 
L 2766 2209 
L 2766 2266 
Q 2766 2663 2505 2880 
Q 2244 3097 1772 3097 
Q 1472 3097 1187 3025 
Q 903 2953 641 2809 
L 641 3341 
Q 956 3463 1253 3523 
Q 1550 3584 1831 3584 
Q 2591 3584 2966 3190 
Q 3341 2797 3341 1997 
z
" transform="scale(0.015625)"/>
       <path id="DejaVuSans-64" d="M 2906 2969 
L 2906 4863 
L 3481 4863 
L 3481 0 
L 2906 0 
L 2906 525 
Q 2725 213 2448 61 
Q 2172 -91 1784 -91 
Q 1150 -91 751 415 
Q 353 922 353 1747 
Q 353 2572 751 3078 
Q 1150 3584 1784 3584 
Q 2172 3584 2448 3432 
Q 2725 3281 2906 2969 
z
M 947 1747 
Q 947 1113 1208 752 
Q 1469 391 1925 391 
Q 2381 391 2643 752 
Q 2906 1113 2906 1747 
Q 2906 2381 2643 2742 
Q 2381 3103 1925 3103 
Q 1469 3103 1208 2742 
Q 947 2381 947 1747 
z
" transform="scale(0.015625)"/>
       <path id="DejaVuSans-70" d="M 1159 525 
L 1159 -1331 
L 581 -1331 
L 581 3500 
L 1159 3500 
L 1159 2969 
Q 1341 3281 1617 3432 
Q 1894 3584 2278 3584 
Q 2916 3584 3314 3078 
Q 3713 2572 3713 1747 
Q 3713 922 3314 415 
Q 2916 -91 2278 -91 
Q 1894 -91 1617 61 
Q 1341 213 1159 525 
z
M 3116 1747 
Q 3116 2381 2855 2742 
Q 2594 3103 2138 3103 
Q 1681 3103 1420 2742 
Q 1159 2381 1159 1747 
Q 1159 1113 1420 752 
Q 1681 391 2138 391 
Q 2594 391 2855 752 
Q 3116 1113 3116 1747 
z
" transform="scale(0.015625)"/>
       <path id="DejaVuSans-6f" d="M 1959 3097 
Q 1497 3097 1228 2736 
Q 959 2375 959 1747 
Q 959 1119 1226 758 
Q 1494 397 1959 397 
Q 2419 397 2687 759 
Q 2956 1122 2956 1747 
Q 2956 2369 2687 2733 
Q 2419 3097 1959 3097 
z
M 1959 3584 
Q 2709 3584 3137 3096 
Q 3566 2609 3566 1747 
Q 3566 888 3137 398 
Q 2709 -91 1959 -91 
Q 1206 -91 779 398 
Q 353 888 353 1747 
Q 353 2609 779 3096 
Q 1206 3584 1959 3584 
z
" transform="scale(0.015625)"/>
       <path id="DejaVuSans-76" d="M 191 3500 
L 800 3500 
L 1894 563 
L 2988 3500 
L 3597 3500 
L 2284 0 
L 1503 0 
L 191 3500 
z
" transform="scale(0.015625)"/>
       <path id="DejaVuSans-6c" d="M 603 4863 
L 1178 4863 
L 1178 0 
L 603 0 
L 603 4863 
z
" transform="scale(0.015625)"/>
      </defs>
      <use xlink:href="#DejaVuSans-41"/>
      <use xlink:href="#DejaVuSans-67" x="68.408203"/>
      <use xlink:href="#DejaVuSans-67" x="131.884766"/>
      <use xlink:href="#DejaVuSans-72" x="195.361328"/>
      <use xlink:href="#DejaVuSans-65" x="234.224609"/>
      <use xlink:href="#DejaVuSans-67" x="295.748047"/>
      <use xlink:href="#DejaVuSans-61" x="359.224609"/>
      <use xlink:href="#DejaVuSans-74" x="420.503906"/>
      <use xlink:href="#DejaVuSans-65" x="459.712891"/>
      <use xlink:href="#DejaVuSans-64" x="521.236328"/>
      <use xlink:href="#DejaVuSans-20" x="584.712891"/>
      <use xlink:href="#DejaVuSans-70" x="616.5"/>
      <use xlink:href="#DejaVuSans-69" x="679.976562"/>
      <use xlink:href="#DejaVuSans-63" x="707.759766"/>
      <use xlink:href="#DejaVuSans-6b" x="762.740234"/>
      <use xlink:href="#DejaVuSans-69" x="820.650391"/>
      <use xlink:href="#DejaVuSans-6e" x="848.433594"/>
      <use xlink:href="#DejaVuSans-67" x="911.8125"/>
      <use xlink:href="#DejaVuSans-20" x="975.289062"/>
      <use xlink:href="#DejaVuSans-6f" x="1007.076172"/>
      <use xlink:href="#DejaVuSans-76" x="1068.257812"/>
      <use xlink:href="#DejaVuSans-65" x="1127.4375"/>
      <use xlink:href="#DejaVuSans-72" x="1188.960938"/>
      <use xlink:href="#DejaVuSans-6c" x="1230.074219"/>
      <use xlink:href="#DejaVuSans-6f" x="1257.857422"/>
      <use xlink:href="#DejaVuSans-61" x="1319.039062"/>
      <use xlink:href="#DejaVuSans-64" x="1380.318359"/>
     </g>
    </g>
   </g>
   <g id="line2d_40">
    <path d="M 93.317841 426.548886 
L 111.072386 361.967619 
L 128.826932 325.869874 
L 146.581477 235.08177 
L 164.336023 215.625459 
L 182.090568 182.701386 
L 199.845114 162.266711 
L 217.599659 118.388291 
L 235.354205 67.679818 
L 253.10875 255.697692 
L 270.863295 435.796182 
L 288.617841 435.796182 
L 306.372386 435.796182 
L 324.126932 435.796182 
L 341.881477 435.796182 
L 359.636023 435.796182 
L 377.390568 435.796182 
L 395.145114 425.624156 
L 412.899659 426.918778 
L 430.654205 419.890833 
L 448.40875 419.520941 
L 466.163295 398.993793 
L 483.917841 367.06103 
L 501.672386 384.943451 
L 519.426932 381.705048 
L 537.181477 368.479565 
L 554.936023 333.890979 
L 572.690568 318.035565 
L 590.445114 380.26062 
L 608.199659 355.322512 
L 625.954205 400.249576 
L 643.70875 406.245522 
L 661.463295 395.095133 
L 679.217841 421.226142 
L 696.972386 429.323075 
L 714.726932 435.42629 
L 732.481477 431.542426 
L 750.236023 434.50156 
L 767.990568 435.796182 
L 785.745114 435.796182 
L 803.499659 435.796182 
" clip-path="url(#p9e70ba3e0a)" style="fill: none; stroke: #5b6cff; stroke-width: 2.8; stroke-linecap: square"/>
   </g>
   <g id="line2d_41">
    <path d="M 93.317841 423.774697 
L 111.072386 396.4027 
L 128.826932 394.183349 
L 146.581477 302.557441 
L 164.336023 341.740084 
L 182.090568 290.071741 
L 199.845114 257.138421 
L 217.599659 247.343685 
L 235.354205 238.850968 
L 253.10875 324.321877 
L 270.863295 435.796182 
L 288.617841 435.796182 
L 306.372386 435.796182 
L 324.126932 435.796182 
L 341.881477 388.797724 
L 359.636023 375.971724 
L 377.390568 237.861507 
L 395.145114 317.593544 
L 412.899659 289.409635 
L 430.654205 327.451162 
L 448.40875 191.760037 
L 466.163295 228.708534 
L 483.917841 320.554528 
L 501.672386 330.323372 
L 519.426932 367.937673 
L 537.181477 353.286258 
L 554.936023 369.099134 
L 572.690568 365.069162 
L 590.445114 368.891994 
L 608.199659 381.734639 
L 625.954205 378.888322 
L 643.70875 429.323075 
L 661.463295 426.733832 
L 679.217841 427.288669 
L 696.972386 427.473615 
L 714.726932 435.796182 
L 732.481477 424.329535 
L 750.236023 435.796182 
L 767.990568 435.796182 
L 785.745114 435.796182 
L 803.499659 435.796182 
" clip-path="url(#p9e70ba3e0a)" style="fill: none; stroke: #f25f5c; stroke-opacity: 0.9; stroke-width: 2.2; stroke-linecap: square"/>
   </g>
   <g id="line2d_42">
    <path d="M 93.317841 427.658561 
L 111.072386 379.402471 
L 128.826932 373.556331 
L 146.581477 295.03569 
L 164.336023 283.454376 
L 182.090568 282.566636 
L 199.845114 224.854261 
L 217.599659 156.095066 
L 235.354205 264.961633 
L 253.10875 349.374651 
L 270.863295 435.796182 
L 288.617841 435.796182 
L 306.372386 435.796182 
L 324.126932 435.796182 
L 341.881477 420.815562 
L 359.636023 362.827618 
L 377.390568 268.111262 
L 395.145114 332.058165 
L 412.899659 312.461295 
L 430.654205 340.476903 
L 448.40875 343.547005 
L 466.163295 347.15715 
L 483.917841 351.984238 
L 501.672386 340.610064 
L 519.426932 381.435027 
L 537.181477 354.923029 
L 554.936023 353.382429 
L 572.690568 348.392588 
L 590.445114 389.744647 
L 608.199659 408.239239 
L 625.954205 407.819412 
L 643.70875 394.915735 
L 661.463295 423.404805 
L 679.217841 414.605078 
L 696.972386 426.548886 
L 714.726932 435.796182 
L 732.481477 427.843507 
L 750.236023 435.796182 
L 767.990568 435.796182 
L 785.745114 435.796182 
L 803.499659 435.796182 
" clip-path="url(#p9e70ba3e0a)" style="fill: none; stroke: #f2a541; stroke-opacity: 0.95; stroke-width: 2.2; stroke-linecap: square"/>
   </g>
   <g id="line2d_43">
    <path d="M 93.317841 423.219859 
L 111.072386 377.268195 
L 128.826932 342.592684 
L 146.581477 310.441685 
L 164.336023 257.2087 
L 182.090568 301.869442 
L 199.845114 191.367952 
L 217.599659 210.515403 
L 235.354205 133.024911 
L 253.10875 338.588605 
L 270.863295 435.796182 
L 288.617841 435.796182 
L 306.372386 435.796182 
L 324.126932 435.796182 
L 341.881477 435.796182 
L 359.636023 401.05594 
L 377.390568 377.921054 
L 395.145114 375.041446 
L 412.899659 382.233993 
L 430.654205 394.105672 
L 448.40875 390.101593 
L 466.163295 371.619947 
L 483.917841 369.280381 
L 501.672386 351.83998 
L 519.426932 359.250764 
L 537.181477 343.441586 
L 554.936023 322.747987 
L 572.690568 327.140452 
L 590.445114 355.94578 
L 608.199659 345.927259 
L 625.954205 395.087735 
L 643.70875 428.953183 
L 661.463295 411.627449 
L 679.217841 429.877912 
L 696.972386 433.946723 
L 714.726932 434.131669 
L 732.481477 435.796182 
L 750.236023 421.363002 
L 767.990568 435.796182 
L 785.745114 435.796182 
L 803.499659 435.796182 
" clip-path="url(#p9e70ba3e0a)" style="fill: none; stroke: #1f9d8b; stroke-width: 3.2; stroke-linecap: square"/>
   </g>
   <g id="patch_4">
    <path d="M 57.80875 454.202 
L 57.80875 49.274 
" style="fill: none; stroke: #d0d7de; stroke-width: 0.8; stroke-linejoin: miter; stroke-linecap: square"/>
   </g>
   <g id="patch_5">
    <path d="M 57.80875 454.202 
L 839.00875 454.202 
" style="fill: none; stroke: #d0d7de; stroke-width: 0.8; stroke-linejoin: miter; stroke-linecap: square"/>
   </g>
   <g id="text_33">
    <g id="patch_6">
     <path d="M 172.565994 62.517491 
L 280.387869 62.517491 
Q 282.587869 62.517491 282.587869 60.317491 
L 282.587869 39.441553 
Q 282.587869 37.241553 280.387869 37.241553 
L 172.565994 37.241553 
Q 170.365994 37.241553 170.365994 39.441553 
L 170.365994 60.317491 
Q 170.365994 62.517491 172.565994 62.517491 
z
" style="fill: #ffffff; opacity: 0.8"/>
    </g>
    <!-- critical morning wave -->
    <g style="fill: #991b1b" transform="translate(172.565994 47.039991) scale(0.1 -0.1)">
     <defs>
      <path id="DejaVuSans-77" d="M 269 3500 
L 844 3500 
L 1563 769 
L 2278 3500 
L 2956 3500 
L 3675 769 
L 4391 3500 
L 4966 3500 
L 4050 0 
L 3372 0 
L 2619 2869 
L 1863 0 
L 1184 0 
L 269 3500 
z
" transform="scale(0.015625)"/>
     </defs>
     <use xlink:href="#DejaVuSans-63"/>
     <use xlink:href="#DejaVuSans-72" x="54.980469"/>
     <use xlink:href="#DejaVuSans-69" x="96.09375"/>
     <use xlink:href="#DejaVuSans-74" x="123.876953"/>
     <use xlink:href="#DejaVuSans-69" x="163.085938"/>
     <use xlink:href="#DejaVuSans-63" x="190.869141"/>
     <use xlink:href="#DejaVuSans-61" x="245.849609"/>
     <use xlink:href="#DejaVuSans-6c" x="307.128906"/>
     <use xlink:href="#DejaVuSans-20" x="334.912109"/>
     <use xlink:href="#DejaVuSans-6d" x="366.699219"/>
     <use xlink:href="#DejaVuSans-6f" x="464.111328"/>
     <use xlink:href="#DejaVuSans-72" x="525.292969"/>
     <use xlink:href="#DejaVuSans-6e" x="564.65625"/>
     <use xlink:href="#DejaVuSans-69" x="628.035156"/>
     <use xlink:href="#DejaVuSans-6e" x="655.818359"/>
     <use xlink:href="#DejaVuSans-67" x="719.197266"/>
     <use xlink:href="#DejaVuSans-20" x="782.673828"/>
     <use xlink:href="#DejaVuSans-77" x="814.460938"/>
     <use xlink:href="#DejaVuSans-61" x="896.248047"/>
     <use xlink:href="#DejaVuSans-76" x="957.527344"/>
     <use xlink:href="#DejaVuSans-65" x="1016.707031"/>
    </g>
    <!-- 05:30–06:15 -->
    <g style="fill: #991b1b" transform="translate(195.158182 58.237803) scale(0.1 -0.1)">
     <defs>
      <path id="DejaVuSans-2013" d="M 313 1978 
L 2888 1978 
L 2888 1528 
L 313 1528 
L 313 1978 
z
" transform="scale(0.015625)"/>
     </defs>
     <use xlink:href="#DejaVuSans-30"/>
     <use xlink:href="#DejaVuSans-35" x="63.623047"/>
     <use xlink:href="#DejaVuSans-3a" x="127.246094"/>
     <use xlink:href="#DejaVuSans-33" x="160.9375"/>
     <use xlink:href="#DejaVuSans-30" x="224.560547"/>
     <use xlink:href="#DejaVuSans-2013" x="288.183594"/>
     <use xlink:href="#DejaVuSans-30" x="338.183594"/>
     <use xlink:href="#DejaVuSans-36" x="401.806641"/>
     <use xlink:href="#DejaVuSans-3a" x="465.429688"/>
     <use xlink:href="#DejaVuSans-31" x="499.121094"/>
     <use xlink:href="#DejaVuSans-35" x="562.744141"/>
    </g>
   </g>
   <g id="patch_7">
    <path d="M 302.394378 78.302537 
Q 269.862463 73.147756 238.986934 68.255435 
" style="fill: none; stroke: #5b6cff; stroke-width: 1.5; stroke-linecap: round"/>
    <path d="M 242.624644 70.856793 
L 238.986934 68.255435 
L 243.250646 66.906082 
" style="fill: none; stroke: #5b6cff; stroke-width: 1.5; stroke-linecap: round"/>
   </g>
   <g id="text_34">
    <!-- V7 peak -->
    <g style="fill: #5b6cff" transform="translate(306.372386 82.448413) scale(0.1 -0.1)">
     <defs>
      <path id="DejaVuSans-56" d="M 1831 0 
L 50 4666 
L 709 4666 
L 2188 738 
L 3669 4666 
L 4325 4666 
L 2547 0 
L 1831 0 
z
" transform="scale(0.015625)"/>
     </defs>
     <use xlink:href="#DejaVuSans-56"/>
     <use xlink:href="#DejaVuSans-37" x="68.408203"/>
     <use xlink:href="#DejaVuSans-20" x="132.03125"/>
     <use xlink:href="#DejaVuSans-70" x="163.818359"/>
     <use xlink:href="#DejaVuSans-65" x="227.294922"/>
     <use xlink:href="#DejaVuSans-61" x="288.818359"/>
     <use xlink:href="#DejaVuSans-6b" x="350.097656"/>
    </g>
    <!-- 1990.4 at 06:00 -->
    <g style="fill: #5b6cff" transform="translate(306.372386 93.646226) scale(0.1 -0.1)">
     <defs>
      <path id="DejaVuSans-2e" d="M 684 794 
L 1344 794 
L 1344 0 
L 684 0 
L 684 794 
z
" transform="scale(0.015625)"/>
     </defs>
     <use xlink:href="#DejaVuSans-31"/>
     <use xlink:href="#DejaVuSans-39" x="63.623047"/>
     <use xlink:href="#DejaVuSans-39" x="127.246094"/>
     <use xlink:href="#DejaVuSans-30" x="190.869141"/>
     <use xlink:href="#DejaVuSans-2e" x="254.492188"/>
     <use xlink:href="#DejaVuSans-34" x="286.279297"/>
     <use xlink:href="#DejaVuSans-20" x="349.902344"/>
     <use xlink:href="#DejaVuSans-61" x="381.689453"/>
     <use xlink:href="#DejaVuSans-74" x="442.96875"/>
     <use xlink:href="#DejaVuSans-20" x="482.177734"/>
     <use xlink:href="#DejaVuSans-30" x="513.964844"/>
     <use xlink:href="#DejaVuSans-36" x="577.587891"/>
     <use xlink:href="#DejaVuSans-3a" x="641.210938"/>
     <use xlink:href="#DejaVuSans-30" x="674.902344"/>
     <use xlink:href="#DejaVuSans-30" x="738.525391"/>
    </g>
   </g>
   <g id="patch_8">
    <path d="M 355.660891 152.229475 
Q 296.493337 142.784555 238.981867 133.603995 
" style="fill: none; stroke: #1f9d8b; stroke-width: 1.5; stroke-linecap: round"/>
    <path d="M 242.616589 136.209528 
L 238.981867 133.603995 
L 243.247126 132.259537 
" style="fill: none; stroke: #1f9d8b; stroke-width: 1.5; stroke-linecap: round"/>
   </g>
   <g id="text_35">
    <!-- V8.2 peak -->
    <g style="fill: #1f9d8b" transform="translate(359.636023 156.426782) scale(0.1 -0.1)">
     <use xlink:href="#DejaVuSans-56"/>
     <use xlink:href="#DejaVuSans-38" x="68.408203"/>
     <use xlink:href="#DejaVuSans-2e" x="132.03125"/>
     <use xlink:href="#DejaVuSans-32" x="163.818359"/>
     <use xlink:href="#DejaVuSans-20" x="227.441406"/>
     <use xlink:href="#DejaVuSans-70" x="259.228516"/>
     <use xlink:href="#DejaVuSans-65" x="322.705078"/>
     <use xlink:href="#DejaVuSans-61" x="384.228516"/>
     <use xlink:href="#DejaVuSans-6b" x="445.507812"/>
    </g>
    <!-- 1637.1 at 06:00 -->
    <g style="fill: #1f9d8b" transform="translate(359.636023 167.624595) scale(0.1 -0.1)">
     <use xlink:href="#DejaVuSans-31"/>
     <use xlink:href="#DejaVuSans-36" x="63.623047"/>
     <use xlink:href="#DejaVuSans-33" x="127.246094"/>
     <use xlink:href="#DejaVuSans-37" x="190.869141"/>
     <use xlink:href="#DejaVuSans-2e" x="254.492188"/>
     <use xlink:href="#DejaVuSans-31" x="286.279297"/>
     <use xlink:href="#DejaVuSans-20" x="349.902344"/>
     <use xlink:href="#DejaVuSans-61" x="381.689453"/>
     <use xlink:href="#DejaVuSans-74" x="442.96875"/>
     <use xlink:href="#DejaVuSans-20" x="482.177734"/>
     <use xlink:href="#DejaVuSans-30" x="513.964844"/>
     <use xlink:href="#DejaVuSans-36" x="577.587891"/>
     <use xlink:href="#DejaVuSans-3a" x="641.210938"/>
     <use xlink:href="#DejaVuSans-30" x="674.902344"/>
     <use xlink:href="#DejaVuSans-30" x="738.525391"/>
    </g>
   </g>
   <g id="text_36">
    <!-- West picking-overload curve -->
    <g transform="translate(334.5625 19.3575) scale(0.16 -0.16)">
     <defs>
      <path id="DejaVuSans-57" d="M 213 4666 
L 850 4666 
L 1831 722 
L 2809 4666 
L 3519 4666 
L 4500 722 
L 5478 4666 
L 6119 4666 
L 4947 0 
L 4153 0 
L 3169 4050 
L 2175 0 
L 1381 0 
L 213 4666 
z
" transform="scale(0.015625)"/>
      <path id="DejaVuSans-73" d="M 2834 3397 
L 2834 2853 
Q 2591 2978 2328 3040 
Q 2066 3103 1784 3103 
Q 1356 3103 1142 2972 
Q 928 2841 928 2578 
Q 928 2378 1081 2264 
Q 1234 2150 1697 2047 
L 1894 2003 
Q 2506 1872 2764 1633 
Q 3022 1394 3022 966 
Q 3022 478 2636 193 
Q 2250 -91 1575 -91 
Q 1294 -91 989 -36 
Q 684 19 347 128 
L 347 722 
Q 666 556 975 473 
Q 1284 391 1588 391 
Q 1994 391 2212 530 
Q 2431 669 2431 922 
Q 2431 1156 2273 1281 
Q 2116 1406 1581 1522 
L 1381 1569 
Q 847 1681 609 1914 
Q 372 2147 372 2553 
Q 372 3047 722 3315 
Q 1072 3584 1716 3584 
Q 2034 3584 2315 3537 
Q 2597 3491 2834 3397 
z
" transform="scale(0.015625)"/>
     </defs>
     <use xlink:href="#DejaVuSans-57"/>
     <use xlink:href="#DejaVuSans-65" x="93.001953"/>
     <use xlink:href="#DejaVuSans-73" x="154.525391"/>
     <use xlink:href="#DejaVuSans-74" x="206.625"/>
     <use xlink:href="#DejaVuSans-20" x="245.833984"/>
     <use xlink:href="#DejaVuSans-70" x="277.621094"/>
     <use xlink:href="#DejaVuSans-69" x="341.097656"/>
     <use xlink:href="#DejaVuSans-63" x="368.880859"/>
     <use xlink:href="#DejaVuSans-6b" x="423.861328"/>
     <use xlink:href="#DejaVuSans-69" x="481.771484"/>
     <use xlink:href="#DejaVuSans-6e" x="509.554688"/>
     <use xlink:href="#DejaVuSans-67" x="572.933594"/>
     <use xlink:href="#DejaVuSans-2d" x="636.410156"/>
     <use xlink:href="#DejaVuSans-6f" x="674.369141"/>
     <use xlink:href="#DejaVuSans-76" x="735.550781"/>
     <use xlink:href="#DejaVuSans-65" x="794.730469"/>
     <use xlink:href="#DejaVuSans-72" x="856.253906"/>
     <use xlink:href="#DejaVuSans-6c" x="897.367188"/>
     <use xlink:href="#DejaVuSans-6f" x="925.150391"/>
     <use xlink:href="#DejaVuSans-61" x="986.332031"/>
     <use xlink:href="#DejaVuSans-64" x="1047.611328"/>
     <use xlink:href="#DejaVuSans-20" x="1111.087891"/>
     <use xlink:href="#DejaVuSans-63" x="1142.875"/>
     <use xlink:href="#DejaVuSans-75" x="1197.855469"/>
     <use xlink:href="#DejaVuSans-72" x="1261.234375"/>
     <use xlink:href="#DejaVuSans-76" x="1302.347656"/>
     <use xlink:href="#DejaVuSans-65" x="1361.527344"/>
    </g>
    <!-- V8.2 smooths the morning wave without collapsing service -->
    <g transform="translate(211.795 37.274) scale(0.16 -0.16)">
     <defs>
      <path id="DejaVuSans-68" d="M 3513 2113 
L 3513 0 
L 2938 0 
L 2938 2094 
Q 2938 2591 2744 2837 
Q 2550 3084 2163 3084 
Q 1697 3084 1428 2787 
Q 1159 2491 1159 1978 
L 1159 0 
L 581 0 
L 581 4863 
L 1159 4863 
L 1159 2956 
Q 1366 3272 1645 3428 
Q 1925 3584 2291 3584 
Q 2894 3584 3203 3211 
Q 3513 2838 3513 2113 
z
" transform="scale(0.015625)"/>
     </defs>
     <use xlink:href="#DejaVuSans-56"/>
     <use xlink:href="#DejaVuSans-38" x="68.408203"/>
     <use xlink:href="#DejaVuSans-2e" x="132.03125"/>
     <use xlink:href="#DejaVuSans-32" x="163.818359"/>
     <use xlink:href="#DejaVuSans-20" x="227.441406"/>
     <use xlink:href="#DejaVuSans-73" x="259.228516"/>
     <use xlink:href="#DejaVuSans-6d" x="311.328125"/>
     <use xlink:href="#DejaVuSans-6f" x="408.740234"/>
     <use xlink:href="#DejaVuSans-6f" x="469.921875"/>
     <use xlink:href="#DejaVuSans-74" x="531.103516"/>
     <use xlink:href="#DejaVuSans-68" x="570.3125"/>
     <use xlink:href="#DejaVuSans-73" x="633.691406"/>
     <use xlink:href="#DejaVuSans-20" x="685.791016"/>
     <use xlink:href="#DejaVuSans-74" x="717.578125"/>
     <use xlink:href="#DejaVuSans-68" x="756.787109"/>
     <use xlink:href="#DejaVuSans-65" x="820.166016"/>
     <use xlink:href="#DejaVuSans-20" x="881.689453"/>
     <use xlink:href="#DejaVuSans-6d" x="913.476562"/>
     <use xlink:href="#DejaVuSans-6f" x="1010.888672"/>
     <use xlink:href="#DejaVuSans-72" x="1072.070312"/>
     <use xlink:href="#DejaVuSans-6e" x="1111.433594"/>
     <use xlink:href="#DejaVuSans-69" x="1174.8125"/>
     <use xlink:href="#DejaVuSans-6e" x="1202.595703"/>
     <use xlink:href="#DejaVuSans-67" x="1265.974609"/>
     <use xlink:href="#DejaVuSans-20" x="1329.451172"/>
     <use xlink:href="#DejaVuSans-77" x="1361.238281"/>
     <use xlink:href="#DejaVuSans-61" x="1443.025391"/>
     <use xlink:href="#DejaVuSans-76" x="1504.304688"/>
     <use xlink:href="#DejaVuSans-65" x="1563.484375"/>
     <use xlink:href="#DejaVuSans-20" x="1625.007812"/>
     <use xlink:href="#DejaVuSans-77" x="1656.794922"/>
     <use xlink:href="#DejaVuSans-69" x="1738.582031"/>
     <use xlink:href="#DejaVuSans-74" x="1766.365234"/>
     <use xlink:href="#DejaVuSans-68" x="1805.574219"/>
     <use xlink:href="#DejaVuSans-6f" x="1868.953125"/>
     <use xlink:href="#DejaVuSans-75" x="1930.134766"/>
     <use xlink:href="#DejaVuSans-74" x="1993.513672"/>
     <use xlink:href="#DejaVuSans-20" x="2032.722656"/>
     <use xlink:href="#DejaVuSans-63" x="2064.509766"/>
     <use xlink:href="#DejaVuSans-6f" x="2119.490234"/>
     <use xlink:href="#DejaVuSans-6c" x="2180.671875"/>
     <use xlink:href="#DejaVuSans-6c" x="2208.455078"/>
     <use xlink:href="#DejaVuSans-61" x="2236.238281"/>
     <use xlink:href="#DejaVuSans-70" x="2297.517578"/>
     <use xlink:href="#DejaVuSans-73" x="2360.994141"/>
     <use xlink:href="#DejaVuSans-69" x="2413.09375"/>
     <use xlink:href="#DejaVuSans-6e" x="2440.876953"/>
     <use xlink:href="#DejaVuSans-67" x="2504.255859"/>
     <use xlink:href="#DejaVuSans-20" x="2567.732422"/>
     <use xlink:href="#DejaVuSans-73" x="2599.519531"/>
     <use xlink:href="#DejaVuSans-65" x="2651.619141"/>
     <use xlink:href="#DejaVuSans-72" x="2713.142578"/>
     <use xlink:href="#DejaVuSans-76" x="2754.255859"/>
     <use xlink:href="#DejaVuSans-69" x="2813.435547"/>
     <use xlink:href="#DejaVuSans-63" x="2841.21875"/>
     <use xlink:href="#DejaVuSans-65" x="2896.199219"/>
    </g>
   </g>
   <g id="legend_1">
    <g id="line2d_44">
     <path d="M 540.618281 63.682281 
L 551.618281 63.682281 
L 562.618281 63.682281 
" style="fill: none; stroke: #5b6cff; stroke-width: 2.8; stroke-linecap: square"/>
    </g>
    <g id="text_37">
     <!-- OR-V7 reference -->
     <g transform="translate(571.418281 67.532281) scale(0.11 -0.11)">
      <defs>
       <path id="DejaVuSans-4f" d="M 2522 4238 
Q 1834 4238 1429 3725 
Q 1025 3213 1025 2328 
Q 1025 1447 1429 934 
Q 1834 422 2522 422 
Q 3209 422 3611 934 
Q 4013 1447 4013 2328 
Q 4013 3213 3611 3725 
Q 3209 4238 2522 4238 
z
M 2522 4750 
Q 3503 4750 4090 4092 
Q 4678 3434 4678 2328 
Q 4678 1225 4090 567 
Q 3503 -91 2522 -91 
Q 1538 -91 948 565 
Q 359 1222 359 2328 
Q 359 3434 948 4092 
Q 1538 4750 2522 4750 
z
" transform="scale(0.015625)"/>
       <path id="DejaVuSans-52" d="M 2841 2188 
Q 3044 2119 3236 1894 
Q 3428 1669 3622 1275 
L 4263 0 
L 3584 0 
L 2988 1197 
Q 2756 1666 2539 1819 
Q 2322 1972 1947 1972 
L 1259 1972 
L 1259 0 
L 628 0 
L 628 4666 
L 2053 4666 
Q 2853 4666 3247 4331 
Q 3641 3997 3641 3322 
Q 3641 2881 3436 2590 
Q 3231 2300 2841 2188 
z
M 1259 4147 
L 1259 2491 
L 2053 2491 
Q 2509 2491 2742 2702 
Q 2975 2913 2975 3322 
Q 2975 3731 2742 3939 
Q 2509 4147 2053 4147 
L 1259 4147 
z
" transform="scale(0.015625)"/>
       <path id="DejaVuSans-66" d="M 2375 4863 
L 2375 4384 
L 1825 4384 
Q 1516 4384 1395 4259 
Q 1275 4134 1275 3809 
L 1275 3500 
L 2222 3500 
L 2222 3053 
L 1275 3053 
L 1275 0 
L 697 0 
L 697 3053 
L 147 3053 
L 147 3500 
L 697 3500 
L 697 3744 
Q 697 4328 969 4595 
Q 1241 4863 1831 4863 
L 2375 4863 
z
" transform="scale(0.015625)"/>
      </defs>
      <use xlink:href="#DejaVuSans-4f"/>
      <use xlink:href="#DejaVuSans-52" x="78.710938"/>
      <use xlink:href="#DejaVuSans-2d" x="144.193359"/>
      <use xlink:href="#DejaVuSans-56" x="174.402344"/>
      <use xlink:href="#DejaVuSans-37" x="242.810547"/>
      <use xlink:href="#DejaVuSans-20" x="306.433594"/>
      <use xlink:href="#DejaVuSans-72" x="338.220703"/>
      <use xlink:href="#DejaVuSans-65" x="377.083984"/>
      <use xlink:href="#DejaVuSans-66" x="438.607422"/>
      <use xlink:href="#DejaVuSans-65" x="473.8125"/>
      <use xlink:href="#DejaVuSans-72" x="535.335938"/>
      <use xlink:href="#DejaVuSans-65" x="574.199219"/>
      <use xlink:href="#DejaVuSans-6e" x="635.722656"/>
      <use xlink:href="#DejaVuSans-63" x="699.101562"/>
      <use xlink:href="#DejaVuSans-65" x="754.082031"/>
     </g>
    </g>
    <g id="line2d_45">
     <path d="M 540.618281 79.828219 
L 551.618281 79.828219 
L 562.618281 79.828219 
" style="fill: none; stroke: #f25f5c; stroke-opacity: 0.9; stroke-width: 2.2; stroke-linecap: square"/>
    </g>
    <g id="text_38">
     <!-- V8 (over-control) -->
     <g transform="translate(571.418281 83.678219) scale(0.11 -0.11)">
      <defs>
       <path id="DejaVuSans-28" d="M 1984 4856 
Q 1566 4138 1362 3434 
Q 1159 2731 1159 2009 
Q 1159 1288 1364 580 
Q 1569 -128 1984 -844 
L 1484 -844 
Q 1016 -109 783 600 
Q 550 1309 550 2009 
Q 550 2706 781 3412 
Q 1013 4119 1484 4856 
L 1984 4856 
z
" transform="scale(0.015625)"/>
       <path id="DejaVuSans-29" d="M 513 4856 
L 1013 4856 
Q 1481 4119 1714 3412 
Q 1947 2706 1947 2009 
Q 1947 1309 1714 600 
Q 1481 -109 1013 -844 
L 513 -844 
Q 928 -128 1133 580 
Q 1338 1288 1338 2009 
Q 1338 2731 1133 3434 
Q 928 4138 513 4856 
z
" transform="scale(0.015625)"/>
      </defs>
      <use xlink:href="#DejaVuSans-56"/>
      <use xlink:href="#DejaVuSans-38" x="68.408203"/>
      <use xlink:href="#DejaVuSans-20" x="132.03125"/>
      <use xlink:href="#DejaVuSans-28" x="163.818359"/>
      <use xlink:href="#DejaVuSans-6f" x="202.832031"/>
      <use xlink:href="#DejaVuSans-76" x="264.013672"/>
      <use xlink:href="#DejaVuSans-65" x="323.193359"/>
      <use xlink:href="#DejaVuSans-72" x="384.716797"/>
      <use xlink:href="#DejaVuSans-2d" x="419.455078"/>
      <use xlink:href="#DejaVuSans-63" x="455.539062"/>
      <use xlink:href="#DejaVuSans-6f" x="510.519531"/>
      <use xlink:href="#DejaVuSans-6e" x="571.701172"/>
      <use xlink:href="#DejaVuSans-74" x="635.080078"/>
      <use xlink:href="#DejaVuSans-72" x="674.289062"/>
      <use xlink:href="#DejaVuSans-6f" x="713.152344"/>
      <use xlink:href="#DejaVuSans-6c" x="774.333984"/>
      <use xlink:href="#DejaVuSans-29" x="802.117188"/>
     </g>
    </g>
    <g id="line2d_46">
     <path d="M 685.94375 63.682281 
L 696.94375 63.682281 
L 707.94375 63.682281 
" style="fill: none; stroke: #f2a541; stroke-opacity: 0.95; stroke-width: 2.2; stroke-linecap: square"/>
    </g>
    <g id="text_39">
     <!-- V8.1 -->
     <g transform="translate(716.74375 67.532281) scale(0.11 -0.11)">
      <use xlink:href="#DejaVuSans-56"/>
      <use xlink:href="#DejaVuSans-38" x="68.408203"/>
      <use xlink:href="#DejaVuSans-2e" x="132.03125"/>
      <use xlink:href="#DejaVuSans-31" x="163.818359"/>
     </g>
    </g>
    <g id="line2d_47">
     <path d="M 685.94375 79.828219 
L 696.94375 79.828219 
L 707.94375 79.828219 
" style="fill: none; stroke: #1f9d8b; stroke-width: 3.2; stroke-linecap: square"/>
    </g>
    <g id="text_40">
     <!-- V8.2 (best trade-off) -->
     <g transform="translate(716.74375 83.678219) scale(0.11 -0.11)">
      <use xlink:href="#DejaVuSans-56"/>
      <use xlink:href="#DejaVuSans-38" x="68.408203"/>
      <use xlink:href="#DejaVuSans-2e" x="132.03125"/>
      <use xlink:href="#DejaVuSans-32" x="163.818359"/>
      <use xlink:href="#DejaVuSans-20" x="227.441406"/>
      <use xlink:href="#DejaVuSans-28" x="259.228516"/>
      <use xlink:href="#DejaVuSans-62" x="298.242188"/>
      <use xlink:href="#DejaVuSans-65" x="361.71875"/>
      <use xlink:href="#DejaVuSans-73" x="423.242188"/>
      <use xlink:href="#DejaVuSans-74" x="475.341797"/>
      <use xlink:href="#DejaVuSans-20" x="514.550781"/>
      <use xlink:href="#DejaVuSans-74" x="546.337891"/>
      <use xlink:href="#DejaVuSans-72" x="585.546875"/>
      <use xlink:href="#DejaVuSans-61" x="626.660156"/>
      <use xlink:href="#DejaVuSans-64" x="687.939453"/>
      <use xlink:href="#DejaVuSans-65" x="751.416016"/>
      <use xlink:href="#DejaVuSans-2d" x="812.939453"/>
      <use xlink:href="#DejaVuSans-6f" x="850.898438"/>
      <use xlink:href="#DejaVuSans-66" x="912.080078"/>
      <use xlink:href="#DejaVuSans-66" x="947.285156"/>
      <use xlink:href="#DejaVuSans-29" x="982.490234"/>
     </g>
    </g>
   </g>
  </g>
 </g>
 <defs>
  <clipPath id="p9e70ba3e0a">
   <rect x="57.80875" y="49.274" width="781.2" height="404.928"/>
  </clipPath>
 </defs>
</svg>
