<svg width="134" height="25" viewBox="0 0 134 25" fill="none" xmlns="http://www.w3.org/2000/svg">
<path fill-rule="evenodd" clip-rule="evenodd" d="M42.0586 16.5403L43.4155 11.7406C43.628 10.9884 43.8036 10.2505 43.9402 9.52704C44.0774 8.80437 44.1457 8.12414 44.1457 7.48737C44.1457 5.31729 43.5219 3.61061 42.2742 2.36632C41.0257 1.1228 39.2155 0.5 36.8415 0.5C35.0154 0.5 33.3562 0.862241 31.8652 1.58517C30.3737 2.30888 29.0501 3.30685 27.8936 4.57961C27.4371 3.36455 26.6758 2.38132 25.6111 1.62864C24.5452 0.876472 23.1606 0.5 21.4568 0.5C19.9957 0.5 18.6947 0.811527 17.5532 1.43329C16.4122 2.05582 15.4147 2.78626 14.563 3.62485L15.2935 1.02111H6.61969L0 24.4995H8.67384L12.189 12.0876C12.5845 10.7281 13.1479 9.67893 13.8785 8.94125C14.6087 8.20357 15.5518 7.8346 16.7089 7.8346C17.5913 7.8346 18.2532 8.05143 18.6947 8.4856C19.1354 8.91951 19.3566 9.52704 19.3566 10.3084C19.3566 10.5687 19.3259 10.8725 19.2655 11.2197C19.2039 11.567 19.1283 11.8997 19.0371 12.218L15.5673 24.4995H24.2415L27.7567 12.0876C28.1519 10.7281 28.7153 9.67893 29.4458 8.94125C30.1763 8.20357 31.1192 7.8346 32.2765 7.8346C33.1894 7.8346 33.8584 8.05143 34.2849 8.4856C34.7109 8.91951 34.924 9.52704 34.924 10.3084C34.924 10.5687 34.8932 10.8725 34.8328 11.2197C34.7713 11.567 34.6956 11.8997 34.6045 12.218L33.3995 16.5403H30.3369L35.1543 24.3577L45.042 16.5403H42.0586Z" fill="#222222"/>
<path fill-rule="evenodd" clip-rule="evenodd" d="M56.9544 17.8423C57.7272 17.8423 58.4373 17.6505 59.0863 17.2654C59.7351 16.8807 60.2867 16.3819 60.7424 15.7692C61.1974 15.157 61.5492 14.4735 61.7978 13.7183C62.0459 12.9628 62.1707 12.2009 62.1707 11.4309C62.1707 10.1206 61.8116 9.08114 61.0942 8.31134C60.3763 7.54206 59.4381 7.15716 58.2796 7.15716C57.5068 7.15716 56.7956 7.34999 56.1469 7.73412C55.4979 8.11928 54.9465 8.61808 54.4913 9.23004C54.0358 9.84301 53.684 10.5267 53.4359 11.2817C53.187 12.0372 53.0632 12.7845 53.0632 13.5252C53.0632 14.8651 53.4215 15.9191 54.1395 16.6882C54.8572 17.4582 55.7951 17.8423 56.9544 17.8423ZM56.4888 24.4995C54.7616 24.4995 53.216 24.2239 51.8515 23.6725C50.4866 23.1213 49.324 22.373 48.363 21.4252C47.4022 20.4786 46.6712 19.3549 46.1699 18.0543C45.6684 16.7546 45.418 15.3406 45.418 13.8143C45.418 12.0903 45.7522 10.422 46.4205 8.81092C47.0889 7.19956 48.0217 5.77899 49.2196 4.54946C50.4169 3.31968 51.8233 2.33765 53.4392 1.60259C55.0542 0.867785 56.8087 0.5 58.7031 0.5C60.4299 0.5 61.9825 0.775583 63.3613 1.32675C64.74 1.87817 65.9097 2.62728 66.8705 3.57407C67.8315 4.52163 68.5625 5.64541 69.0638 6.94492C69.5653 8.24545 69.8157 9.64507 69.8157 11.143C69.8157 12.8961 69.4745 14.5708 68.7923 16.1676C68.1096 17.7647 67.1767 19.185 65.9932 20.4288C64.8092 21.6732 63.4031 22.6626 61.7736 23.3972C60.1445 24.1317 58.3827 24.4995 56.4888 24.4995Z" fill="#222222"/>
<path fill-rule="evenodd" clip-rule="evenodd" d="M69.4395 0.5H77.6798L78.5251 14.3715L86.4274 0.5H94.9633L79.7085 24.4995H72.3975L69.4395 0.5Z" fill="#222222"/>
<path fill-rule="evenodd" clip-rule="evenodd" d="M107.186 10.5916C107.325 10.1676 107.395 9.75822 107.395 9.36208C107.395 8.57083 107.144 7.88532 106.641 7.30555C106.137 6.72655 105.354 6.43615 104.292 6.43615C103.23 6.43615 102.217 6.78274 101.253 7.47514C100.288 8.16806 99.5679 9.20705 99.0928 10.5916H107.186ZM98.548 14.7047C98.6319 15.864 99.0155 16.7821 99.701 17.4608C100.385 18.1391 101.413 18.4783 102.783 18.4783C103.593 18.4783 104.383 18.3373 105.152 18.0543C105.92 17.7724 106.738 17.3057 107.605 16.6552L111.295 21.065C110.121 22.0826 108.779 22.9096 107.27 23.5456C105.76 24.1815 104.013 24.4995 102.028 24.4995C100.351 24.4995 98.8415 24.2589 97.4994 23.779C96.158 23.2986 95.0255 22.6126 94.1031 21.722C93.1807 20.8316 92.468 19.765 91.9649 18.5207C91.4615 17.2771 91.21 15.878 91.21 14.3231C91.21 12.6269 91.5247 10.952 92.1535 9.29849C92.7827 7.64473 93.6907 6.16797 94.8787 4.86744C96.0671 3.56768 97.4994 2.51413 99.1769 1.70858C100.854 0.902775 102.741 0.5 104.837 0.5C106.515 0.5 107.961 0.761791 109.177 1.28461C110.393 1.80793 111.392 2.50749 112.175 3.38328C112.957 4.25983 113.538 5.27048 113.915 6.41521C114.293 7.55994 114.482 8.75447 114.482 9.99804C114.482 10.7898 114.404 11.5879 114.251 12.394C114.097 13.1993 113.88 13.9701 113.601 14.7047H98.548Z" fill="#222222"/>
<path fill-rule="evenodd" clip-rule="evenodd" d="M118.431 0.921118H126.557L125.317 5.67166C126.429 3.98707 127.683 2.67212 129.081 1.72731C130.478 0.78382 132.118 0.384004 134 0.528915L131.69 9.24559H131.006C128.782 9.24559 126.949 9.89926 125.51 11.2066C124.07 12.5142 122.979 14.5776 122.238 17.3955L120.356 24.4995H112.229L118.431 0.921118Z" fill="#222222"/>
</svg>
