<svg width="134" height="24" viewBox="0 0 134 24" fill="none" xmlns="http://www.w3.org/2000/svg">
<path fill-rule="evenodd" clip-rule="evenodd" d="M42.0586 16.0403L43.4155 11.2406C43.628 10.4884 43.8036 9.75049 43.9402 9.02704C44.0774 8.30437 44.1457 7.62414 44.1457 6.98737C44.1457 4.81729 43.5219 3.11061 42.2742 1.86632C41.0257 0.622796 39.2155 0 36.8415 0C35.0154 0 33.3562 0.362241 31.8652 1.08517C30.3737 1.80888 29.0501 2.80685 27.8936 4.07961C27.4371 2.86455 26.6758 1.88132 25.6111 1.12864C24.5452 0.376472 23.1606 0 21.4568 0C19.9957 0 18.6947 0.311527 17.5532 0.933288C16.4122 1.55582 15.4147 2.28626 14.563 3.12485L15.2935 0.521109H6.61969L0 23.9995H8.67384L12.189 11.5876C12.5845 10.2281 13.1479 9.17893 13.8785 8.44125C14.6087 7.70357 15.5518 7.3346 16.7089 7.3346C17.5913 7.3346 18.2532 7.55143 18.6947 7.9856C19.1354 8.41951 19.3566 9.02704 19.3566 9.80845C19.3566 10.0687 19.3259 10.3725 19.2655 10.7197C19.2039 11.067 19.1283 11.3997 19.0371 11.718L15.5673 23.9995H24.2415L27.7567 11.5876C28.1519 10.2281 28.7153 9.17893 29.4458 8.44125C30.1763 7.70357 31.1192 7.3346 32.2765 7.3346C33.1894 7.3346 33.8584 7.55143 34.2849 7.9856C34.7109 8.41951 34.924 9.02704 34.924 9.80845C34.924 10.0687 34.8932 10.3725 34.8328 10.7197C34.7713 11.067 34.6956 11.3997 34.6045 11.718L33.3995 16.0403H30.3369L35.1543 23.8577L45.042 16.0403H42.0586Z" fill="white"/>
<path fill-rule="evenodd" clip-rule="evenodd" d="M56.9539 17.3423C57.7267 17.3423 58.4369 17.1505 59.0858 16.7654C59.7346 16.3807 60.2862 15.8819 60.7419 15.2692C61.1969 14.657 61.5487 13.9735 61.7973 13.2183C62.0454 12.4628 62.1703 11.7009 62.1703 10.9309C62.1703 9.62064 61.8112 8.58114 61.0937 7.81134C60.3758 7.04206 59.4376 6.65716 58.2791 6.65716C57.5063 6.65716 56.7951 6.84999 56.1464 7.23412C55.4974 7.61928 54.946 8.11808 54.4908 8.73004C54.0353 9.34301 53.6835 10.0267 53.4354 10.7817C53.1865 11.5372 53.0627 12.2845 53.0627 13.0252C53.0627 14.3651 53.4211 15.4191 54.139 16.1882C54.8567 16.9582 55.7946 17.3423 56.9539 17.3423ZM56.4884 23.9995C54.7611 23.9995 53.2155 23.7239 51.851 23.1725C50.4861 22.6213 49.3235 21.873 48.3625 20.9252C47.4017 19.9786 46.6707 18.8549 46.1694 17.5543C45.6679 16.2546 45.4175 14.8406 45.4175 13.3143C45.4175 11.5903 45.7517 9.92202 46.42 8.31092C47.0884 6.69956 48.0213 5.27899 49.2191 4.04946C50.4164 2.81968 51.8229 1.83765 53.4387 1.10259C55.0537 0.367785 56.8082 0 58.7026 0C60.4294 0 61.982 0.275583 63.3608 0.82675C64.7396 1.37817 65.9092 2.12728 66.87 3.07407C67.831 4.02163 68.562 5.14541 69.0633 6.44492C69.5649 7.74545 69.8152 9.14507 69.8152 10.643C69.8152 12.3961 69.474 14.0708 68.7918 15.6676C68.1091 17.2647 67.1762 18.685 65.9927 19.9288C64.8088 21.1732 63.4026 22.1626 61.7732 22.8972C60.144 23.6317 58.3822 23.9995 56.4884 23.9995Z" fill="white"/>
<path fill-rule="evenodd" clip-rule="evenodd" d="M69.4399 0H77.6803L78.5256 13.8715L86.4279 0H94.9638L79.709 23.9995H72.398L69.4399 0Z" fill="white"/>
<path fill-rule="evenodd" clip-rule="evenodd" d="M107.186 10.0916C107.325 9.66763 107.395 9.25822 107.395 8.86208C107.395 8.07083 107.144 7.38532 106.641 6.80555C106.137 6.22655 105.354 5.93615 104.292 5.93615C103.23 5.93615 102.217 6.28274 101.253 6.97514C100.288 7.66806 99.5679 8.70705 99.0928 10.0916H107.186ZM98.548 14.2047C98.6319 15.364 99.0155 16.2821 99.701 16.9608C100.385 17.6391 101.413 17.9783 102.783 17.9783C103.593 17.9783 104.383 17.8373 105.152 17.5543C105.92 17.2724 106.738 16.8057 107.605 16.1552L111.295 20.565C110.121 21.5826 108.779 22.4096 107.27 23.0456C105.76 23.6815 104.013 23.9995 102.028 23.9995C100.351 23.9995 98.8415 23.7589 97.4994 23.279C96.158 22.7986 95.0255 22.1126 94.1031 21.222C93.1807 20.3316 92.468 19.265 91.9649 18.0207C91.4615 16.7771 91.21 15.378 91.21 13.8231C91.21 12.1269 91.5247 10.452 92.1535 8.79849C92.7827 7.14473 93.6907 5.66797 94.8787 4.36744C96.0671 3.06768 97.4994 2.01413 99.1769 1.20858C100.854 0.402775 102.741 0 104.837 0C106.515 0 107.961 0.261791 109.177 0.784608C110.393 1.30793 111.392 2.00749 112.175 2.88328C112.957 3.75983 113.538 4.77048 113.915 5.91521C114.293 7.05994 114.482 8.25447 114.482 9.49804C114.482 10.2898 114.404 11.0879 114.251 11.894C114.097 12.6993 113.88 13.4701 113.601 14.2047H98.548Z" fill="white"/>
<path fill-rule="evenodd" clip-rule="evenodd" d="M118.431 0.421118H126.557L125.317 5.17166C126.429 3.48707 127.683 2.17212 129.081 1.22731C130.478 0.28382 132.118 -0.115996 134 0.0289147L131.69 8.74559H131.006C128.782 8.74559 126.949 9.39926 125.51 10.7066C124.07 12.0142 122.979 14.0776 122.238 16.8955L120.356 23.9995H112.229L118.431 0.421118Z" fill="white"/>
</svg>
